# xmcd CD database file
#
# Track frame offsets:
#	150
#	19272
#	35000
#	55872
#	79390
#	93003
#	114386
#	131251
#	144494
#	165373
#	177140
#	187185
#	204606
#	216743
#	235070
#	249039
#
# Disc length: 3550 seconds
#
# Revision: 0
# Processed by: cddbd v1.5.2PL0 Copyright (c) Steve Scherf et al.
# Submitted via: CDex 1.51
#
DISCID=d80ddc10
DTITLE=Free Beer and Chicken - Bright And Blue
DYEAR=2008
DGENRE=Blues
TTITLE0=NO LUBIDA
TTITLE1=HEY BOOZOO
TTITLE2=BRIGHT and BLUE
TTITLE3=JOHNNY BE GOOD
TTITLE4=SPANN'S STOMP
TTITLE5=GOOD MORNING MISS BROWN
TTITLE6=PAPA JOE
TTITLE7=REACH OUT
TTITLE8=SENSITIVE KIND
TTITLE9=SAIL AWAY
TTITLE10=BIN LEMBE
TTITLE11=MR. SIEGEL
TTITLE12=ROCKET BOOGIE
TTITLE13=BIG BOSS MAN
TTITLE14=TOOT, TOOT
TTITLE15=YELLOW MOON 
EXTD=YEAR: 2008
EXTT0=
EXTT1=
EXTT2=
EXTT3=
EXTT4=
EXTT5=
EXTT6=
EXTT7=
EXTT8=
EXTT9=
EXTT10=
EXTT11=
EXTT12=
EXTT13=
EXTT14=
EXTT15=
PLAYORDER=
